<svg id="Capa_1" data-name="Capa 1" xmlns="http://www.w3.org/2000/svg" viewBox="0 0 199 172"><defs><style>.cls-1{fill:#383838;stroke:#383838;}.cls-1,.cls-3,.cls-4{stroke-miterlimit:10;}.cls-1,.cls-4{stroke-width:3px;}.cls-2{fill:#e85633;}.cls-3{fill:#fdfdfd;stroke:#fdfdfd;stroke-width:8px;}.cls-4{fill:#676664;stroke:#676664;}.cls-5{fill:#ed6c61;}.cls-6{fill:#f6c04f;}.cls-7{fill:#6ab756;}</style></defs><title>Mesa de trabajo 1</title><rect class="cls-1" x="2.68" y="16.24" width="193.64" height="153.74"/><path class="cls-2" d="M61.51,126.57l-36-21.16a6.33,6.33,0,0,1-2.05-2,4.42,4.42,0,0,1-.74-2.41V97.27a4.61,4.61,0,0,1,.74-2.49,5.43,5.43,0,0,1,2.05-1.89l36-21.15A9.33,9.33,0,0,1,63.1,71a3.68,3.68,0,0,1,1.14-.19,4.73,4.73,0,0,1,3.39,1.34,4.28,4.28,0,0,1,1.42,3.25,4.65,4.65,0,0,1-.73,2.49,5.48,5.48,0,0,1-2,1.88L33.09,99l33.18,19.52a6.54,6.54,0,0,1,2,2,4.41,4.41,0,0,1,.73,2.41,4.31,4.31,0,0,1-1.39,3.28,4.78,4.78,0,0,1-3.42,1.31,3.68,3.68,0,0,1-1.14-.19A9.33,9.33,0,0,1,61.51,126.57Z"/><path class="cls-3" d="M100.62,73.62h10.19c.89,0,1.34.41,1.34,1.23v2.58c0,.82-.45,1.23-1.34,1.23H100.62a.9.9,0,0,0-1,1v49.72c0,.89-.41,1.34-1.23,1.34H95.14c-.82,0-1.23-.45-1.23-1.34V79.67a.9.9,0,0,0-1-1H85.74a1.09,1.09,0,0,1-1.24-1.23V74.85a1.09,1.09,0,0,1,1.24-1.23H92.9a.89.89,0,0,0,1-1V67.69Q93.91,52,108.12,52h2.69c.89,0,1.34.41,1.34,1.23v2.58c0,.82-.45,1.23-1.34,1.23h-2.13q-5,0-7.05,2.69c-1.34,1.79-2,4.52-2,8.17v4.7A.89.89,0,0,0,100.62,73.62Z"/><path class="cls-2" d="M135.08,71.74l36.07,21.15a5.58,5.58,0,0,1,2,1.89,4.6,4.6,0,0,1,.73,2.49V101a4.6,4.6,0,0,1-.73,2.49,5.48,5.48,0,0,1-2,1.88l-36.07,21.16a9.23,9.23,0,0,1-1.51.71,3.44,3.44,0,0,1-1.17.22,4.72,4.72,0,0,1-3.42-1.34,4.36,4.36,0,0,1-1.39-3.25,4.66,4.66,0,0,1,.74-2.49,5.33,5.33,0,0,1,2-1.88L163.5,99.29,130.38,79.77a6.71,6.71,0,0,1-2.08-2,4.46,4.46,0,0,1,.68-5.65,4.72,4.72,0,0,1,3.42-1.34,4,4,0,0,1,1.2.21A7.91,7.91,0,0,1,135.08,71.74Z"/><rect class="cls-4" x="2.68" y="2.62" width="193.64" height="19.63"/><circle class="cls-5" cx="15.62" cy="12.04" r="8.13"/><circle class="cls-6" cx="36.07" cy="12.04" r="8.13"/><circle class="cls-7" cx="56.65" cy="12.04" r="8.13"/></svg>