<svg id="Capa_1" data-name="Capa 1" xmlns="http://www.w3.org/2000/svg" viewBox="0 0 199 172"><defs><style>.cls-1{fill:#eb593d;stroke:#383838;stroke-width:3px;}.cls-1,.cls-2{stroke-miterlimit:10;}.cls-2,.cls-3{fill:#fafafa;}.cls-2{stroke:#fafafa;stroke-width:8px;}</style></defs><title>Mesa de trabajo 1</title><rect class="cls-1" x="2.68" y="3.31" width="193.64" height="166.07"/><path class="cls-2" d="M79.45,127.14,26.79,96.2a9.42,9.42,0,0,1-3-2.88,6.4,6.4,0,0,1-1.08-3.51V84.29a6.74,6.74,0,0,1,1.08-3.64,8,8,0,0,1,3-2.76L79.45,47a14.1,14.1,0,0,1,2.32-1.08,5.74,5.74,0,0,1,1.68-.28,7,7,0,0,1,5,2,6.29,6.29,0,0,1,2.08,4.76A6.74,6.74,0,0,1,89.4,56a7.9,7.9,0,0,1-3,2.75L37.89,86.85,86.4,115.39a9.42,9.42,0,0,1,3,2.88,6.4,6.4,0,0,1,1.08,3.52,6.28,6.28,0,0,1-2,4.79,7,7,0,0,1-5,1.92,5.42,5.42,0,0,1-1.68-.28A12.6,12.6,0,0,1,79.45,127.14Z"/><path class="cls-2" d="M123.05,127.1l52.67-30.95a9.29,9.29,0,0,0,3-2.87,6.5,6.5,0,0,0,1.07-3.52V84.24a6.82,6.82,0,0,0-1.07-3.64,7.9,7.9,0,0,0-3-2.75L123.05,46.9a14.1,14.1,0,0,0-2.32-1.08,5.67,5.67,0,0,0-1.67-.28,7,7,0,0,0-5,2A6.34,6.34,0,0,0,112,52.26a6.74,6.74,0,0,0,1.08,3.64,8,8,0,0,0,3,2.76L164.61,86.8,116.1,115.34a9.42,9.42,0,0,0-3,2.88,6.4,6.4,0,0,0-1.08,3.52,6.32,6.32,0,0,0,2,4.8,7,7,0,0,0,5,1.92,5.67,5.67,0,0,0,1.67-.28A14.1,14.1,0,0,0,123.05,127.1Z"/><circle class="cls-3" cx="15.62" cy="16.04" r="8.13"/><circle class="cls-3" cx="36.07" cy="16.04" r="8.13"/><circle class="cls-3" cx="56.65" cy="16.04" r="8.13"/></svg>