<svg xmlns="http://www.w3.org/2000/svg" viewBox="0 0 460.4 161.43"><defs><style>.cls-1{fill:#383838;stroke:#383838;}.cls-1,.cls-3,.cls-4{stroke-miterlimit:10;stroke-width:3px;}.cls-2{fill:#d85f40;}.cls-3{fill:#fdfdfd;stroke:#fdfdfd;}.cls-4{fill:#cac9c7;stroke:#cac9c7;}.cls-5{fill:#de7367;}.cls-6{fill:#efc263;}.cls-7{fill:#7db462;}</style></defs><title>Recurso 2</title><g id="Capa_2" data-name="Capa 2"><g id="Capa_1-2" data-name="Capa 1"><rect class="cls-1" x="1.5" y="14.39" width="457.4" height="145.54"/><path class="cls-2" d="M56.24,118.84l-34.11-20A6.08,6.08,0,0,1,20.19,97a4.15,4.15,0,0,1-.7-2.28V91.1a4.35,4.35,0,0,1,.7-2.36A5.07,5.07,0,0,1,22.13,87l34.11-20a8.39,8.39,0,0,1,1.5-.7,3.6,3.6,0,0,1,1.09-.18A4.47,4.47,0,0,1,62,67.32a4.06,4.06,0,0,1,1.35,3.08,4.32,4.32,0,0,1-.7,2.35,5.09,5.09,0,0,1-1.94,1.79L29.32,92.76l31.42,18.47a6,6,0,0,1,1.94,1.87,4.2,4.2,0,0,1-.62,5.38,4.53,4.53,0,0,1-3.23,1.24,3.6,3.6,0,0,1-1.09-.18A8.39,8.39,0,0,1,56.24,118.84Z"/><path class="cls-3" d="M93.28,68.71h9.64c.85,0,1.28.39,1.28,1.17v2.44c0,.78-.43,1.16-1.28,1.16H93.28a.85.85,0,0,0-1,1V121.5c0,.85-.39,1.27-1.16,1.27H88.08c-.77,0-1.16-.42-1.16-1.27V74.44a.85.85,0,0,0-1-1H79.18A1,1,0,0,1,78,72.32V69.88a1,1,0,0,1,1.17-1.17H86a.84.84,0,0,0,1-.95V63.1q0-14.85,13.46-14.84h2.54c.85,0,1.28.39,1.28,1.16v2.44c0,.78-.43,1.17-1.28,1.17h-2c-3.18,0-5.41.84-6.68,2.54s-1.91,4.28-1.91,7.74v4.45A.84.84,0,0,0,93.28,68.71Z"/><path class="cls-3" d="M118.93,122.77h-3.08c-.7,0-1.06-.42-1.06-1.27v-72c0-.85.36-1.27,1.06-1.27h3.08c.78,0,1.16.42,1.16,1.27v72C120.09,122.35,119.71,122.77,118.93,122.77Z"/><path class="cls-3" d="M172.46,122.77H150.3q-6.88,0-10.86-4t-4-11v-24q0-7,4-11t10.86-4h9.12q6.89,0,10.92,4t4,11V97.23a1.13,1.13,0,0,1-1.28,1.27H141.72a.85.85,0,0,0-1,1v8.17q0,5,2.55,7.68c1.69,1.8,4.17,2.7,7.42,2.7h21.73a1,1,0,0,1,1.16,1.17v2.44A1,1,0,0,1,172.46,122.77ZM141.72,94.26h26.39a.85.85,0,0,0,1-1V83.87q0-5-2.55-7.68c-1.69-1.8-4.17-2.71-7.42-2.71h-8.37c-3.25,0-5.73.91-7.42,2.71s-2.55,4.36-2.55,7.68v9.44A.85.85,0,0,0,141.72,94.26Z"/><path class="cls-3" d="M193.76,108.89V121.5c0,.85-.35,1.27-1.06,1.27H189c-.78,0-1.16-.42-1.16-1.27V108.89a1,1,0,0,1,1.16-1.17h3.71C193.41,107.72,193.76,108.11,193.76,108.89Z"/><path class="cls-3" d="M211.25,73.48h-6.46c-.78,0-1.17-.35-1.17-1.06V69.88a1,1,0,0,1,1.17-1.17h6.46a.84.84,0,0,0,1-.95V59.17c0-.84.38-1.27,1.16-1.27h3.08c.77,0,1.16.43,1.16,1.27v8.59a.84.84,0,0,0,1,.95h12.61a1,1,0,0,1,1.17,1.17v2.54c0,.71-.39,1.06-1.17,1.06H218.57a.85.85,0,0,0-1,1v33.39q0,4.88,2.76,7.52c1.84,1.77,4.41,2.65,7.74,2.65h4.13a1,1,0,0,1,1.17,1.17v2.44a1,1,0,0,1-1.17,1.16h-4.56q-7,0-11.23-3.92T212.21,108V74.44A.85.85,0,0,0,211.25,73.48Z"/><path class="cls-3" d="M281.63,122.77H259.48q-6.89,0-10.86-4t-4-11v-24q0-7,4-11t10.86-4h9.12q6.88,0,10.91,4t4,11V97.23a1.12,1.12,0,0,1-1.27,1.27H250.89a.84.84,0,0,0-.95,1v8.17q0,5,2.54,7.68t7.42,2.7h21.73a1,1,0,0,1,1.17,1.17v2.44A1,1,0,0,1,281.63,122.77ZM250.89,94.26h26.4a.84.84,0,0,0,.95-1V83.87q0-5-2.54-7.68c-1.7-1.8-4.17-2.71-7.42-2.71H259.9c-3.25,0-5.72.91-7.42,2.71s-2.54,4.36-2.54,7.68v9.44A.84.84,0,0,0,250.89,94.26Z"/><path class="cls-3" d="M328.06,119.17v2.44a1,1,0,0,1-1.16,1.16H311.63q-6.88,0-10.86-4t-4-11v-24q0-7,4-11t10.86-4H326.9a1,1,0,0,1,1.16,1.17v2.54c0,.71-.39,1.06-1.16,1.06H312.06q-4.89,0-7.42,2.76T302.09,84v23.53q0,5,2.55,7.74c1.69,1.84,4.16,2.75,7.42,2.75H326.9A1,1,0,0,1,328.06,119.17Z"/><path class="cls-3" d="M343.75,122.77h-3.08c-.7,0-1.05-.42-1.05-1.27v-72c0-.85.35-1.27,1.05-1.27h3.08c.78,0,1.17.42,1.17,1.27v24.7h.42q3-5.52,11-5.52h7q6.78,0,10.71,4t3.92,11V121.5c0,.85-.36,1.27-1.06,1.27h-3.08c-.78,0-1.16-.42-1.16-1.27V84q0-5-2.55-7.74c-1.69-1.84-4.17-2.76-7.42-2.76h-6.89a11.31,11.31,0,0,0-8,2.71q-2.91,2.7-2.91,7.68V121.5C344.92,122.35,344.53,122.77,343.75,122.77Z"/><path class="cls-2" d="M403.31,66.93l34.16,20a5.17,5.17,0,0,1,1.95,1.78,4.43,4.43,0,0,1,.69,2.36v3.57a4.43,4.43,0,0,1-.69,2.36,5.17,5.17,0,0,1-1.95,1.78l-34.16,20a8.25,8.25,0,0,1-1.42.67,3.38,3.38,0,0,1-1.11.21,4.48,4.48,0,0,1-3.24-1.27,4.1,4.1,0,0,1-1.32-3.08,4.41,4.41,0,0,1,.7-2.35,5.24,5.24,0,0,1,1.94-1.79L430.23,93,398.86,74.54a6.42,6.42,0,0,1-2-1.87,4.2,4.2,0,0,1,.64-5.35,4.48,4.48,0,0,1,3.24-1.27,3.64,3.64,0,0,1,1.14.21A6.66,6.66,0,0,1,403.31,66.93Z"/><rect class="cls-4" x="1.5" y="1.5" width="457.4" height="10.63"/><circle class="cls-5" cx="9.18" cy="6.82" r="4.1"/><circle class="cls-6" cx="19.49" cy="6.82" r="4.1"/><circle class="cls-7" cx="29.87" cy="6.82" r="4.1"/></g></g></svg>